<svg width="22" height="22" viewBox="0 0 22 22" fill="none" xmlns="http://www.w3.org/2000/svg">
<path fill-rule="evenodd" clip-rule="evenodd" d="M4.59353 10.6102L5.76848 9.43517C6.12647 9.07717 6.70686 9.07717 7.06485 9.43517C7.42283 9.79313 7.42283 10.3736 7.06485 10.7315L4.31485 13.4815C4.14294 13.6534 3.90978 13.75 3.66667 13.75C3.42355 13.75 3.19039 13.6534 3.01848 13.4815L0.268486 10.7315C-0.0894952 10.3736 -0.0894952 9.79313 0.268486 9.43517C0.626466 9.07717 1.20686 9.07717 1.56485 9.43517L2.75743 10.6278C2.95275 5.73773 6.97875 1.83334 11.9167 1.83334C16.9793 1.83334 21.0833 5.9374 21.0833 11C21.0833 16.0626 16.9793 20.1667 11.9167 20.1667C9.03666 20.1667 6.46644 18.8374 4.78742 16.7625C4.46896 16.369 4.52984 15.7918 4.92339 15.4733C5.31693 15.1549 5.89414 15.2158 6.2126 15.6093C7.55849 17.2725 9.61337 18.3333 11.9167 18.3333C15.9668 18.3333 19.25 15.0501 19.25 11C19.25 6.94992 15.9668 3.66668 11.9167 3.66668C7.99738 3.66668 4.7962 6.74129 4.59353 10.6102ZM11.9167 4.58334C12.4229 4.58334 12.8333 4.99375 12.8333 5.50001V10.6203L15.3148 13.1018C15.6728 13.4598 15.6728 14.0402 15.3148 14.3982C14.9569 14.7561 14.3765 14.7561 14.0185 14.3982L11.2685 11.6482C11.0966 11.4763 11 11.2431 11 11V5.50001C11 4.99375 11.4104 4.58334 11.9167 4.58334Z" fill="#E6E6E6"/>
</svg>
