<svg width="21" height="20" viewBox="0 0 21 20" fill="none" xmlns="http://www.w3.org/2000/svg">
<path d="M7.22553 1.54856C7.95303 1.54856 8.54103 2.1057 8.54103 2.7957V6.52428C8.54064 6.68843 8.5063 6.8509 8.43997 7.00241C8.37365 7.15393 8.27664 7.29152 8.15449 7.40732C8.03233 7.52313 7.88742 7.61489 7.72803 7.67736C7.56864 7.73983 7.39789 7.7718 7.22553 7.77142H3.71103C3.53874 7.7718 3.36806 7.73982 3.20876 7.67733C3.04945 7.61485 2.90464 7.52306 2.7826 7.40724C2.66057 7.29141 2.5637 7.15381 2.49754 7.00231C2.43138 6.8508 2.39723 6.68836 2.39703 6.52428V2.7957C2.39703 2.10713 2.98503 1.54856 3.71103 1.54856H7.22553ZM7.22553 11.5143C7.95303 11.5143 8.54103 12.0714 8.54103 12.7614V16.49C8.54064 16.6541 8.5063 16.8166 8.43997 16.9681C8.37365 17.1196 8.27664 17.2572 8.15449 17.373C8.03233 17.4888 7.88742 17.5806 7.72803 17.6431C7.56864 17.7055 7.39789 17.7375 7.22553 17.7371H3.71103C3.53874 17.7375 3.36806 17.7055 3.20876 17.643C3.04945 17.5806 2.90464 17.4888 2.7826 17.373C2.66057 17.2571 2.5637 17.1195 2.49754 16.968C2.43138 16.8165 2.39723 16.6541 2.39703 16.49V12.7614C2.39703 12.0714 2.98503 11.5143 3.71103 11.5143H7.22553ZM17.289 1.54856C18.015 1.54856 18.603 2.1057 18.603 2.7957V6.52428C18.6022 6.85555 18.4634 7.17297 18.217 7.40682C17.9706 7.64066 17.6369 7.7718 17.289 7.77142H13.7745C13.6021 7.77198 13.4313 7.74015 13.2718 7.67775C13.1123 7.61534 12.9673 7.52359 12.8451 7.40774C12.7229 7.2919 12.6259 7.15424 12.5597 7.00264C12.4934 6.85104 12.4592 6.68848 12.459 6.52428V2.7957C12.459 2.10713 13.0485 1.54856 13.7745 1.54856H17.289ZM3.54903 8.96285H7.38753C8.71053 8.96285 9.78153 7.94856 9.78153 6.6957V2.62428C9.78094 2.32563 9.71852 2.03002 9.59783 1.75437C9.47715 1.47872 9.30057 1.22845 9.07821 1.01787C8.85584 0.807288 8.59206 0.640538 8.30195 0.527161C8.01185 0.413784 7.70111 0.356005 7.38753 0.357133H3.55053C2.22753 0.357133 1.15503 1.37142 1.15503 2.6257V6.6957C1.15562 6.99435 1.21804 7.28996 1.33873 7.56561C1.45941 7.84126 1.63599 8.09153 1.85835 8.30211C2.08071 8.51269 2.3445 8.67944 2.6346 8.79282C2.92471 8.9062 3.23545 8.96398 3.54903 8.96285ZM3.54903 18.9286H7.38753C8.71053 18.9286 9.78153 17.9143 9.78153 16.66V12.59C9.78094 12.2913 9.71852 11.9957 9.59783 11.7201C9.47715 11.4444 9.30057 11.1942 9.07821 10.9836C8.85584 10.773 8.59206 10.6063 8.30195 10.4929C8.01185 10.3795 7.70111 10.3217 7.38753 10.3228H3.55053C2.22753 10.3228 1.15653 11.3371 1.15653 12.59V16.6614C1.15712 16.9601 1.21954 17.2557 1.34023 17.5313C1.46091 17.807 1.63749 18.0572 1.85985 18.2678C2.08221 18.4784 2.346 18.6452 2.6361 18.7585C2.92621 18.8719 3.23695 18.9297 3.55053 18.9286H3.54903ZM13.614 8.96285H17.4495C18.7725 8.96285 19.8435 7.94856 19.8435 6.6957V2.62428C19.8429 2.32563 19.7805 2.03002 19.6598 1.75437C19.5391 1.47872 19.3626 1.22845 19.1402 1.01787C18.9178 0.807288 18.6541 0.640538 18.364 0.527161C18.0738 0.413784 17.7631 0.356005 17.4495 0.357133H13.6125C12.2895 0.357133 11.22 1.37142 11.22 2.6257V6.6957C11.2206 6.99435 11.283 7.28996 11.4037 7.56561C11.5244 7.84126 11.701 8.09153 11.9234 8.30211C12.1457 8.51269 12.4095 8.67944 12.6996 8.79282C12.9897 8.9062 13.3004 8.96398 13.614 8.96285ZM17.2845 17.73H13.611C12.819 17.73 12.477 17.4157 12.477 16.66V12.59C12.477 11.8371 12.8205 11.5086 13.6125 11.5086H17.4495C18.2445 11.5086 18.6015 11.8357 18.6015 12.5886V16.6628C18.6015 16.9128 18.882 17.2 19.248 17.2C19.614 17.2 19.8435 16.9128 19.8435 16.6628V12.5886C19.8427 12.29 19.7802 11.9946 19.6594 11.7191C19.5386 11.4436 19.362 11.1935 19.1397 10.9831C18.9173 10.7726 18.6536 10.606 18.3636 10.4927C18.0736 10.3795 17.763 10.3217 17.4495 10.3228H13.6125C12.2895 10.3228 11.2185 11.3371 11.2185 12.59V16.6614C11.2191 16.9599 11.2815 17.2554 11.4021 17.531C11.5227 17.8065 11.6991 18.0568 11.9213 18.2673C12.1435 18.4779 12.4071 18.6447 12.6971 18.7581C12.987 18.8716 13.2976 18.9295 13.611 18.9286H17.4375C17.7135 18.9286 18.0675 18.7143 18.0675 18.3271C18.0668 18.1705 18.0017 18.0203 17.8862 17.9087C17.7707 17.7971 17.614 17.733 17.4495 17.73H17.286H17.2845Z" fill="#97FCE4"/>
</svg>
