<svg width="22" height="22" viewBox="0 0 22 22" fill="none" xmlns="http://www.w3.org/2000/svg">
<g clip-path="url(#clip0_60_320)">
<path d="M0.738174 8.50191C0.274128 9.03806 0.0185547 9.72386 0.0185547 10.4329V11.5671C0.0185547 12.2762 0.274128 12.962 0.738174 13.4981C1.12478 13.9448 1.63489 14.2632 2.20015 14.4158C2.25126 14.5474 2.30533 14.6778 2.36233 14.807C2.07053 15.3147 1.93489 15.9005 1.9774 16.4898C2.02839 17.197 2.33259 17.8627 2.83402 18.3641L3.63597 19.166C3.9161 19.4462 4.24377 19.6637 4.60983 19.8127C4.96477 19.9571 5.33924 20.0303 5.72284 20.0303C6.2453 20.0303 6.74748 19.8955 7.19353 19.6379C7.32256 19.6948 7.45285 19.7488 7.58426 19.7999C7.73687 20.3651 8.05524 20.8752 8.50189 21.2618C9.03807 21.7259 9.72387 21.9814 10.4329 21.9814H11.5671C12.2762 21.9814 12.9619 21.7258 13.4981 21.2618C13.9448 20.8752 14.2631 20.3651 14.4158 19.7999C14.5472 19.7488 14.6774 19.6948 14.8065 19.6379C15.2525 19.8955 15.7547 20.0303 16.2772 20.0303C16.6608 20.0303 17.0352 19.9571 17.3902 19.8127C17.7562 19.6637 18.0839 19.4462 18.364 19.166L19.166 18.364C19.6674 17.8626 19.9717 17.197 20.0227 16.4898C20.0651 15.9005 19.9295 15.3146 19.6377 14.807C19.6947 14.6778 19.7488 14.5473 19.7998 14.4158C20.3651 14.2631 20.8752 13.9448 21.2618 13.4981C21.7259 12.9619 21.9814 12.2762 21.9814 11.5671V10.4329C21.9814 9.72382 21.7259 9.03802 21.2618 8.50188C20.8752 8.05523 20.3651 7.73686 19.7998 7.58421C19.7488 7.45269 19.6947 7.32218 19.6376 7.193C19.9295 6.68534 20.0651 6.09946 20.0227 5.51021C19.9717 4.80294 19.6674 4.13732 19.166 3.63593L18.364 2.83393C18.0839 2.55381 17.7562 2.33625 17.3902 2.1873C17.0353 2.04288 16.6607 1.96967 16.2772 1.96967C15.7547 1.96967 15.2525 2.10445 14.8065 2.36206C14.6775 2.30517 14.5472 2.25117 14.4158 2.2001C14.2631 1.63484 13.9448 1.12473 13.4981 0.738126C12.9619 0.274117 12.2762 0.0185432 11.5671 0.0185432H10.4329C9.72383 0.0185432 9.038 0.274117 8.50185 0.738163C8.05524 1.12473 7.73687 1.63488 7.58422 2.20014C7.45282 2.25121 7.32253 2.30521 7.1935 2.3621C6.74744 2.10449 6.24527 1.96971 5.72284 1.96971C5.33924 1.96971 4.96477 2.04292 4.60983 2.1873C4.24374 2.33625 3.9161 2.55381 3.63594 2.83393L2.83402 3.63589C2.33259 4.13732 2.02839 4.80294 1.9774 5.51021C1.93489 6.09946 2.07053 6.68534 2.36233 7.193C2.30537 7.32218 2.25126 7.45262 2.20015 7.58421C1.63489 7.7369 1.12478 8.05523 0.738174 8.50191ZM3.05154 9.04347C3.26584 9.01132 3.44352 8.86 3.50824 8.6532C3.64896 8.2035 3.82902 7.77124 4.04443 7.36038C4.14467 7.16916 4.12465 6.93698 3.99636 6.76334L3.82935 6.53732C3.42446 5.99517 3.47902 5.23791 3.95753 4.7594L4.75948 3.95744C5.02344 3.69349 5.37218 3.55852 5.72288 3.55856C6.00794 3.55856 6.2943 3.64776 6.53737 3.8293L6.76342 3.99631C6.86312 4.06997 6.98213 4.10795 7.10163 4.10795C7.19023 4.10795 7.27906 4.08706 7.36047 4.04438C7.77133 3.82897 8.20359 3.64891 8.65328 3.50819C8.86012 3.44348 9.0114 3.26582 9.04356 3.05149L9.08525 2.77393C9.18231 2.10423 9.75636 1.6074 10.433 1.6074H11.5672C12.2439 1.6074 12.8179 2.10423 12.915 2.77393L12.9567 3.05149C12.9888 3.26579 13.1401 3.44348 13.347 3.50819C13.7967 3.64891 14.2289 3.82897 14.6397 4.04438C14.7211 4.08706 14.81 4.10795 14.8986 4.10795C15.018 4.10795 15.1371 4.06997 15.2368 3.99631L15.4628 3.8293C15.7059 3.64772 15.9922 3.55856 16.2774 3.55856C16.628 3.55856 16.9768 3.69356 17.2407 3.95744L18.0427 4.7594C18.5212 5.23791 18.5757 5.99513 18.1709 6.53732L18.0038 6.76334C17.8756 6.93702 17.8555 7.16916 17.9557 7.36038C18.1712 7.77121 18.3513 8.2035 18.4919 8.6532C18.5567 8.86 18.7343 9.01128 18.9486 9.04347L19.2262 9.08516C19.8959 9.18222 20.3927 9.75627 20.3927 10.4329V11.5671C20.3927 12.2438 19.8959 12.8179 19.2262 12.9149L18.9486 12.9566C18.7344 12.9887 18.5567 13.14 18.4919 13.3468C18.3513 13.7965 18.1712 14.2288 17.9557 14.6396C17.8555 14.8308 17.8756 15.063 18.0038 15.2367L18.1709 15.4627C18.5757 16.0049 18.5212 16.7621 18.0427 17.2406L17.2407 18.0426C16.9768 18.3065 16.628 18.4415 16.2774 18.4415C15.9923 18.4415 15.7059 18.3523 15.4628 18.1708L15.2368 18.0038C15.1371 17.9301 15.0181 17.8921 14.8986 17.8921C14.81 17.8921 14.7212 17.913 14.6397 17.9557C14.2289 18.1711 13.7967 18.3511 13.347 18.4918C13.1401 18.5566 12.9888 18.7342 12.9567 18.9485L12.915 19.2261C12.818 19.8958 12.2439 20.3926 11.5672 20.3926H10.433C9.75632 20.3926 9.18227 19.8958 9.08521 19.2261L9.04352 18.9485C9.01137 18.7342 8.86005 18.5566 8.65324 18.4918C8.20355 18.3511 7.77129 18.1711 7.36043 17.9557C7.27899 17.913 7.1902 17.8921 7.10159 17.8921C6.98213 17.8921 6.86312 17.9301 6.76339 18.0038L6.53737 18.1708C6.29426 18.3524 6.00798 18.4415 5.72284 18.4415C5.37218 18.4415 5.0234 18.3065 4.75945 18.0426L3.95749 17.2406C3.47898 16.7622 3.42439 16.0049 3.82931 15.4627L3.99632 15.2367C4.12461 15.063 4.14467 14.8309 4.04439 14.6396C3.82898 14.2288 3.64892 13.7965 3.50821 13.3468C3.44349 13.14 3.2658 12.9888 3.0515 12.9566L2.77394 12.9149C2.10424 12.8179 1.60741 12.2438 1.60741 11.5671V10.4329C1.60741 9.75623 2.10424 9.18218 2.77394 9.08516L3.05154 9.04347Z" fill="#E6E6E6"/>
<path d="M11.5671 22H10.4329C9.71933 22 9.0292 21.7428 8.48968 21.2759C8.0428 20.8891 7.72451 20.3837 7.56871 19.8138C7.4432 19.7649 7.31744 19.7127 7.19456 19.6587C6.74925 19.9139 6.24051 20.0489 5.72276 20.0489C5.33671 20.0489 4.95986 19.9752 4.60274 19.8299C4.23427 19.68 3.90456 19.4611 3.62276 19.1792L2.82081 18.3772C2.31626 17.8727 2.0101 17.2028 1.95881 16.4912C1.9163 15.9016 2.0486 15.3192 2.34148 14.806C2.28737 14.683 2.23515 14.557 2.18616 14.4313C1.61626 14.2755 1.11086 13.9572 0.72407 13.5103C0.257206 12.9708 0 12.2807 0 11.5671V10.4329C0 9.71941 0.257169 9.02931 0.724144 8.48975C1.11082 8.04295 1.61622 7.72463 2.18623 7.56871C2.23504 7.44346 2.28729 7.31747 2.34155 7.19404C2.04863 6.68082 1.91634 6.09835 1.95884 5.50884C2.01014 4.79715 2.3163 4.12731 2.82084 3.62276L3.6228 2.82081C3.90478 2.53886 4.23449 2.31997 4.60281 2.17013C4.95993 2.02482 5.33675 1.95117 5.72283 1.95117C6.24058 1.95117 6.74932 2.08609 7.19464 2.34137C7.31758 2.28729 7.44339 2.23515 7.56878 2.18627C7.72459 1.6163 8.04292 1.1109 8.48975 0.724181C9.02927 0.257169 9.71937 0 10.4329 0H11.5671C12.2806 0 12.9707 0.257169 13.5103 0.724144C13.9572 1.11094 14.2755 1.61633 14.4312 2.18623C14.5567 2.23511 14.6825 2.28726 14.8054 2.34133C15.2508 2.08605 15.7595 1.95113 16.2772 1.95113C16.6632 1.95113 17.04 2.02482 17.3972 2.1701C17.7657 2.32004 18.0954 2.53897 18.3772 2.82081L19.1792 3.6228C19.6837 4.12734 19.9899 4.79719 20.0412 5.50887C20.0837 6.09843 19.9513 6.68093 19.6584 7.19408C19.7127 7.3174 19.7649 7.44335 19.8138 7.56874C20.3837 7.72455 20.8891 8.04288 21.2759 8.48975C21.7429 9.02927 22 9.71937 22 10.4329V11.5671C22 12.2806 21.7428 12.9708 21.2759 13.5103C20.8891 13.9572 20.3837 14.2755 19.8138 14.4313C19.7652 14.5559 19.713 14.6819 19.6585 14.806C19.9513 15.3192 20.0836 15.9017 20.0412 16.4912C19.9898 17.2029 19.6837 17.8727 19.1791 18.3773L18.3771 19.1792C18.0953 19.461 17.7657 19.6799 17.3972 19.8299C17.04 19.9752 16.6632 20.0488 16.2772 20.0488C15.7594 20.0488 15.2507 19.9139 14.8053 19.6586C14.682 19.7129 14.5562 19.765 14.4311 19.8138C14.2754 20.3837 13.9571 20.889 13.5102 21.2758C12.9707 21.7428 12.2806 22 11.5671 22ZM7.19237 19.6172L7.20098 19.621C7.32893 19.6774 7.46011 19.7318 7.59092 19.7826L7.59964 19.786L7.60209 19.7951C7.75504 20.3615 8.07036 20.8638 8.51397 21.2478C9.04674 21.709 9.72823 21.9629 10.4329 21.9629H11.5671C12.2717 21.9629 12.9531 21.7089 13.486 21.2478C13.9296 20.8638 14.2449 20.3615 14.3978 19.7951L14.4003 19.786L14.409 19.7826C14.5393 19.732 14.6705 19.6776 14.7989 19.621L14.8076 19.6172L14.8157 19.6219C15.2574 19.8769 15.7627 20.0118 16.2771 20.0118C16.6584 20.0118 17.0305 19.939 17.3831 19.7956C17.747 19.6475 18.0726 19.4313 18.3509 19.153L19.1528 18.351C19.6511 17.8527 19.9534 17.1913 20.0041 16.4885C20.0462 15.9032 19.9139 15.325 19.6216 14.8163L19.6169 14.8081L19.6207 14.7996C19.6777 14.6703 19.7321 14.5389 19.7825 14.4092L19.7859 14.4004L19.7949 14.398C20.3614 14.245 20.8638 13.9297 21.2478 13.4861C21.7089 12.9533 21.9628 12.2718 21.9628 11.5671V10.433C21.9628 9.72831 21.7089 9.04685 21.2478 8.51408C20.8638 8.07047 20.3615 7.75515 19.795 7.6022L19.7859 7.59975L19.7825 7.591C19.7318 7.4603 19.6773 7.32897 19.6207 7.20057L19.6168 7.19197L19.6215 7.18384C19.914 6.67514 20.0462 6.09687 20.0041 5.51166C19.9534 4.80884 19.6511 4.14741 19.1528 3.64913L18.3509 2.84714C18.0726 2.56883 17.747 2.35264 17.3831 2.20459C17.0304 2.06109 16.6583 1.98833 16.2771 1.98833C15.7627 1.98833 15.2574 2.12314 14.8157 2.37823L14.8076 2.38294L14.7989 2.37912C14.671 2.32268 14.5398 2.26831 14.409 2.21749L14.4003 2.21408L14.3978 2.20503C14.2449 1.63862 13.9296 1.13623 13.486 0.752257C12.9531 0.291067 12.2717 0.0370881 11.5671 0.0370881H10.4329C9.72823 0.0370881 9.04674 0.291067 8.51397 0.752183C8.0704 1.13612 7.75507 1.63848 7.60212 2.20496L7.59968 2.21401L7.59092 2.21742C7.46019 2.26819 7.32901 2.32257 7.20098 2.37905L7.19237 2.38287L7.18422 2.37816C6.74261 2.12311 6.23725 1.98825 5.72283 1.98825C5.34157 1.98825 4.96947 2.06098 4.6168 2.20451C4.25307 2.35246 3.92748 2.56868 3.64902 2.84706L2.8471 3.64898C2.34886 4.14726 2.04656 4.80873 1.99586 5.51154C1.95365 6.09672 2.08594 6.675 2.37838 7.18373L2.38306 7.19185L2.37927 7.20042C2.3226 7.32897 2.26812 7.4603 2.21738 7.59085L2.21401 7.5996L2.20496 7.60205C1.63844 7.75511 1.13604 8.07043 0.752183 8.51401C0.291067 9.04685 0.0370881 9.72831 0.0370881 10.4329V11.5671C0.0370881 12.2717 0.291067 12.9532 0.752183 13.486C1.13619 13.9296 1.63855 14.245 2.20496 14.3979L2.21401 14.4003L2.21738 14.4091C2.26831 14.5401 2.32275 14.6714 2.37927 14.7995L2.38306 14.808L2.37838 14.8162C2.08594 15.325 1.95365 15.9032 1.99586 16.4884C2.04652 17.1912 2.34882 17.8527 2.8471 18.3509L3.64906 19.1529C3.92737 19.4312 4.25296 19.6474 4.6168 19.7955C4.96947 19.9389 5.34157 20.0117 5.72283 20.0117C6.23725 20.0117 6.74261 19.8769 7.18425 19.6218L7.19237 19.6172ZM11.5671 20.4113H10.433C9.75182 20.4113 9.16449 19.9029 9.06684 19.2288L9.02515 18.9514C8.99422 18.7451 8.84602 18.5717 8.64767 18.5096C8.20202 18.3702 7.76605 18.1893 7.35182 17.9722C7.27512 17.932 7.18859 17.9107 7.10158 17.9107C6.9849 17.9107 6.86871 17.9491 6.77443 18.0187L6.54838 18.1858C6.30812 18.3652 6.02262 18.4601 5.72283 18.4601C5.35388 18.4601 5.00707 18.3165 4.74634 18.0558L3.94439 17.2538C3.46276 16.7722 3.40691 15.9974 3.81447 15.4517L3.9814 15.2258C4.10554 15.0577 4.12382 14.8311 4.02799 14.6483C3.8108 14.2341 3.62999 13.7981 3.49054 13.3525C3.42846 13.1541 3.25507 13.006 3.04875 12.975L2.77118 12.9333C2.09718 12.8356 1.58885 12.2483 1.58885 11.5672V10.433C1.58885 9.75186 2.09718 9.16457 2.77126 9.06688L3.04871 9.02519C3.255 8.99422 3.42842 8.84606 3.49047 8.64771C3.62992 8.20202 3.81076 7.76605 4.02791 7.35185C4.12371 7.16908 4.10546 6.9424 3.98133 6.77443L3.81432 6.54841C3.4068 6.00274 3.46265 5.22801 3.94431 4.74638L4.74627 3.94443C5.007 3.6837 5.35377 3.54009 5.72269 3.54009C6.02247 3.54009 6.30797 3.635 6.54838 3.81451L6.77436 3.98148C6.86863 4.05113 6.98483 4.08951 7.10151 4.08951C7.18855 4.08951 7.27508 4.06826 7.35174 4.02806C7.76598 3.81087 8.20199 3.63007 8.6476 3.49062C8.84598 3.42857 8.99415 3.25514 9.02508 3.04886L9.06677 2.77129C9.16446 2.09729 9.75175 1.58896 10.4329 1.58896H11.5671C12.2482 1.58896 12.8355 2.09729 12.9332 2.77137L12.9749 3.04882C13.0059 3.25514 13.154 3.42853 13.3524 3.49058C13.798 3.62999 14.234 3.81083 14.6483 4.02802C14.7249 4.06823 14.8114 4.08948 14.8985 4.08948C15.0151 4.08948 15.1313 4.05113 15.2256 3.98144L15.4517 3.81443C15.692 3.63496 15.9775 3.54005 16.2772 3.54005C16.6462 3.54005 16.993 3.68366 17.2537 3.94439L18.0557 4.74634C18.5373 5.22793 18.5931 6.0027 18.1856 6.54845L18.0186 6.77439C17.8945 6.9424 17.8762 7.16905 17.972 7.35182C18.1892 7.76605 18.3701 8.20206 18.5095 8.64767C18.5716 8.84602 18.745 8.99419 18.9513 9.02515L19.2288 9.06684C19.9028 9.16453 20.4111 9.75182 20.4111 10.433V11.5671C20.4111 12.2483 19.9028 12.8356 19.2287 12.9333L18.9513 12.9749C18.745 13.0059 18.5716 13.1541 18.5095 13.3524C18.3701 13.7981 18.1892 14.234 17.972 14.6483C17.8762 14.8311 17.8945 15.0577 18.0186 15.2257L18.1857 15.4517C18.5931 15.9974 18.5373 16.7722 18.0557 17.2538L17.2537 18.0557C16.993 18.3165 16.6462 18.4601 16.2772 18.4601C15.9775 18.4601 15.692 18.3652 15.4516 18.1856L15.2256 18.0187C15.1313 17.949 15.0151 17.9107 14.8985 17.9107C14.8114 17.9107 14.7249 17.9319 14.6483 17.9721C14.234 18.1893 13.798 18.3701 13.3524 18.5096C13.154 18.5716 13.0059 18.745 12.9749 18.9513L12.9332 19.2289C12.8356 19.9029 12.2483 20.4113 11.5671 20.4113ZM7.10158 17.8736C7.19456 17.8736 7.28702 17.8963 7.36903 17.9393C7.7813 18.1554 8.21523 18.3354 8.65876 18.4742C8.87057 18.5404 9.02879 18.7256 9.06187 18.9458L9.10356 19.2234C9.19862 19.8795 9.77018 20.3741 10.433 20.3741H11.5672C12.23 20.3741 12.8016 19.8795 12.8966 19.2235L12.9384 18.9458C12.9714 18.7256 13.1296 18.5404 13.3414 18.4742C13.7849 18.3354 14.2189 18.1554 14.6311 17.9393C14.7131 17.8963 14.8056 17.8736 14.8986 17.8736C15.0231 17.8736 15.1471 17.9145 15.2478 17.9889L15.4738 18.1559C15.7079 18.3306 15.9857 18.423 16.2774 18.423C16.6364 18.423 16.9738 18.2832 17.2276 18.0295L18.0295 17.2275C18.4982 16.7589 18.5526 16.005 18.156 15.4738L17.9889 15.2478C17.8564 15.0684 17.8369 14.8263 17.9393 14.6311C18.1555 14.2187 18.3355 13.7849 18.4742 13.3414C18.5405 13.1295 18.7256 12.9713 18.9459 12.9383L19.2234 12.8966C19.8795 12.8015 20.3742 12.23 20.3742 11.5671V10.433C20.3742 9.77014 19.8795 9.19862 19.2236 9.10352L18.9459 9.06183C18.7256 9.02875 18.5405 8.87057 18.4742 8.65876C18.3355 8.21526 18.1555 7.78133 17.9393 7.36903C17.8369 7.17376 17.8564 6.93168 17.9889 6.75236L18.1559 6.52631C18.5526 5.99514 18.4982 5.24121 18.0295 4.77253L17.2276 3.97057C16.9739 3.71685 16.6364 3.57711 16.2774 3.57711C15.9857 3.57711 15.7078 3.66945 15.4739 3.84414L15.2478 4.01122C15.1471 4.08555 15.0231 4.12649 14.8986 4.12649C14.8056 4.12649 14.7131 4.10379 14.6311 4.06081C14.2188 3.84462 13.7849 3.66467 13.3414 3.52589C13.1296 3.45965 12.9714 3.2745 12.9384 3.05424L12.8966 2.77667C12.8015 2.12062 12.23 1.62594 11.5672 1.62594H10.433C9.77018 1.62594 9.19865 2.12062 9.1036 2.7766L9.06191 3.05424C9.02883 3.27447 8.87061 3.45961 8.6588 3.52589C8.2153 3.66467 7.78133 3.84462 7.36906 4.06081C7.28713 4.10379 7.19464 4.12649 7.10162 4.12649C6.97704 4.12649 6.85302 4.08555 6.7524 4.01122L6.52635 3.84421C6.29236 3.66945 6.01453 3.57711 5.72287 3.57711C5.36378 3.57711 5.02632 3.71685 4.7726 3.97057L3.97065 4.77253C3.50193 5.24125 3.44759 5.99517 3.84421 6.52624L4.01126 6.75232C4.14374 6.93168 4.16321 7.17372 4.06084 7.36899C3.8447 7.78126 3.66471 8.21515 3.52592 8.65872C3.45965 8.87053 3.27454 9.02875 3.05428 9.0618L2.77671 9.10348C2.12066 9.19854 1.62598 9.77011 1.62598 10.4329V11.5671C1.62598 12.2299 2.12066 12.8015 2.77663 12.8966L3.05428 12.9382C3.2745 12.9713 3.45965 13.1295 3.52592 13.3413C3.66471 13.7849 3.84466 14.2188 4.06081 14.631C4.16321 14.8263 4.14374 15.0684 4.01122 15.2477L3.84421 15.4737C3.44752 16.0049 3.50189 16.7588 3.97057 17.2275L4.77253 18.0295C5.02628 18.2832 5.36375 18.4229 5.7228 18.4229C6.01453 18.4229 6.29232 18.3306 6.52624 18.1559L6.75232 17.9888C6.85298 17.9145 6.977 17.8736 7.10158 17.8736Z" fill="#E6E6E6"/>
<path d="M6.53811 15.4844C7.11709 16.0633 7.79176 16.5181 8.54335 16.836C9.32231 17.1655 10.1489 17.3325 11 17.3325C11.8512 17.3325 12.6777 17.1655 13.4567 16.836C14.2082 16.5181 14.8829 16.0633 15.4619 15.4844C16.0408 14.9054 16.4956 14.2307 16.8135 13.4792C17.1429 12.7002 17.31 11.8737 17.31 11.0225C17.31 10.1714 17.1429 9.34485 16.8135 8.56593C16.4956 7.81434 16.0408 7.13971 15.4619 6.56073C14.8829 5.98174 14.2082 5.52697 13.4567 5.20909C12.6777 4.8796 11.8512 4.71255 11 4.71255C10.1489 4.71255 9.32231 4.8796 8.54335 5.20905C7.79176 5.52693 7.11709 5.98171 6.53811 6.56069C5.95913 7.13971 5.50436 7.81434 5.18648 8.56593C4.85702 9.34489 4.68994 10.1714 4.68994 11.0226C4.68994 11.8737 4.85699 12.7002 5.18648 13.4792C5.50439 14.2307 5.95913 14.9054 6.53811 15.4844ZM11 6.30133C13.6074 6.30133 15.7211 8.41505 15.7211 11.0225C15.7211 13.6299 13.6074 15.7437 11 15.7437C8.39255 15.7437 6.27883 13.6299 6.27883 11.0225C6.27883 8.41505 8.39255 6.30133 11 6.30133Z" fill="#E6E6E6"/>
<path d="M11 17.3511C10.1463 17.3511 9.31733 17.1835 8.53611 16.8531C7.78229 16.5342 7.10566 16.0781 6.52497 15.4975C5.94429 14.9168 5.48821 14.2401 5.16937 13.4863C4.83891 12.7051 4.67139 11.8761 4.67139 11.0225C4.67139 10.1688 4.83895 9.33985 5.16937 8.55859C5.48818 7.80485 5.94429 7.12821 6.52497 6.54745C7.10562 5.9668 7.78226 5.51069 8.53611 5.19184C9.31733 4.86143 10.1463 4.69386 11 4.69386C11.8536 4.69386 12.6826 4.86143 13.4639 5.19184C14.2177 5.51073 14.8943 5.96684 15.475 6.54745C16.0557 7.12829 16.5119 7.80492 16.8306 8.55855C17.161 9.33977 17.3285 10.1688 17.3285 11.0224C17.3285 11.876 17.161 12.705 16.8306 13.4863C16.5119 14.2399 16.0557 14.9165 15.475 15.4974C14.8942 16.0781 14.2176 16.5342 13.4639 16.853C12.6826 17.1835 11.8536 17.3511 11 17.3511ZM11 4.73103C10.1513 4.73103 9.3272 4.89759 8.55057 5.22608C7.80117 5.54303 7.12851 5.99647 6.55123 6.57374C5.97392 7.15109 5.52052 7.82376 5.20356 8.57309C4.87507 9.34975 4.70851 10.1738 4.70851 11.0225C4.70851 11.8711 4.87507 12.6952 5.20356 13.4719C5.52052 14.2213 5.97396 14.894 6.55123 15.4712C7.12851 16.0485 7.80121 16.5019 8.55057 16.8189C9.3272 17.1474 10.1513 17.314 11 17.314C11.8486 17.314 12.6728 17.1474 13.4494 16.8189C14.1987 16.502 14.8714 16.0486 15.4487 15.4712C16.0261 14.8938 16.4795 14.2211 16.7964 13.4719C17.1248 12.6952 17.2914 11.8711 17.2914 11.0225C17.2914 10.1738 17.1249 9.34975 16.7964 8.57313C16.4795 7.82391 16.0261 7.15124 15.4487 6.57378C14.8715 5.99654 14.1988 5.54311 13.4494 5.22611C12.6728 4.89762 11.8486 4.73103 11 4.73103ZM11 15.7622C8.3865 15.7622 6.26028 13.636 6.26028 11.0225C6.26028 8.40901 8.3865 6.28279 11 6.28279C13.6134 6.28279 15.7396 8.40901 15.7396 11.0225C15.7396 13.636 13.6134 15.7622 11 15.7622ZM11 6.31988C8.40693 6.31988 6.29736 8.42945 6.29736 11.0225C6.29736 13.6155 8.40693 15.7251 11 15.7251C13.593 15.7251 15.7026 13.6155 15.7026 11.0225C15.7026 8.42948 13.593 6.31988 11 6.31988Z" fill="#E6E6E6"/>
</g>
<defs>
<clipPath id="clip0_60_320">
<rect width="22" height="22" fill="white"/>
</clipPath>
</defs>
</svg>
